<svg id="visual" viewBox="0 0 900 600" width="900" height="600" xmlns="http://www.w3.org/2000/svg" xmlns:xlink="http://www.w3.org/1999/xlink" version="1.1"><rect x="0" y="0" width="900" height="600" fill="#1a1a1a"></rect><path d="M0 571L7.8 503.2C15.7 435.3 31.3 299.7 47.2 286.2C63 272.7 79 381.3 94.8 362.2C110.7 343 126.3 196 142 122.3C157.7 48.7 173.3 48.3 189.2 138.2C205 228 221 408 236.8 447.2C252.7 486.3 268.3 384.7 284.2 378.8C300 373 316 463 331.8 421.5C347.7 380 363.3 207 379 213.2C394.7 219.3 410.3 404.7 426.2 403.3C442 402 458 214 473.8 156.7C489.7 99.3 505.3 172.7 521 224.5C536.7 276.3 552.3 306.7 568.2 341.2C584 375.7 600 414.3 615.8 413.7C631.7 413 647.3 373 663.2 324.5C679 276 695 219 710.8 166.7C726.7 114.3 742.3 66.7 758 113.2C773.7 159.7 789.3 300.3 805.2 342.2C821 384 837 327 852.8 328.7C868.7 330.3 884.3 390.7 892.2 420.8L900 451L900 601L892.2 601C884.3 601 868.7 601 852.8 601C837 601 821 601 805.2 601C789.3 601 773.7 601 758 601C742.3 601 726.7 601 710.8 601C695 601 679 601 663.2 601C647.3 601 631.7 601 615.8 601C600 601 584 601 568.2 601C552.3 601 536.7 601 521 601C505.3 601 489.7 601 473.8 601C458 601 442 601 426.2 601C410.3 601 394.7 601 379 601C363.3 601 347.7 601 331.8 601C316 601 300 601 284.2 601C268.3 601 252.7 601 236.8 601C221 601 205 601 189.2 601C173.3 601 157.7 601 142 601C126.3 601 110.7 601 94.8 601C79 601 63 601 47.2 601C31.3 601 15.7 601 7.8 601L0 601Z" fill="#4db6ac" stroke-linecap="round" stroke-linejoin="miter"></path></svg>